<svg xmlns:xlink="http://www.w3.org/1999/xlink"  width="72" height="50" viewBox="0 0 72 50" fill="none" xmlns="http://www.w3.org/2000/svg">
<g clip-path="url(#clip0_34_10)">
<path d="M21.8126 0.216481C21.8159 0.143661 21.8196 0.071493 21.8237 0C21.8203 0.0723874 21.8165 0.144547 21.8126 0.216481C21.4747 7.63863 25.1425 21.8522 42.5976 21.0032C35.4678 21.503 21.3391 26.5685 21.822 42.8298C21.6005 35.7375 17.0094 21.7229 0.441399 21.645C0.291298 21.6473 0.144104 21.6477 0 21.6462C0.148069 21.6447 0.2952 21.6443 0.441399 21.645C7.47462 21.5363 20.8883 17.1617 21.8126 0.216481Z" fill="#FF9996"></path>
<path d="M58.7832 24.2896C58.7851 24.2459 58.7874 24.2025 58.7898 24.1597C58.7878 24.2031 58.7855 24.2464 58.7832 24.2896C58.5804 28.7428 60.7811 37.271 71.2541 36.7616C66.9763 37.0614 58.499 40.1008 58.7888 49.8576C58.6559 45.6022 55.9013 37.1934 45.9605 37.1467C45.8704 37.1481 45.782 37.1482 45.6956 37.1474C45.7844 37.1465 45.8727 37.1462 45.9605 37.1467C50.1803 37.0815 58.2286 34.4567 58.7832 24.2896Z" fill="#FFCB78"></path>
</g>
<defs>
<clipPath id="clip0_34_10">
<rect width="71.2541" height="49.8779" fill="white"></rect>
</clipPath>
</defs>
</svg>