<svg xmlns:xlink="http://www.w3.org/1999/xlink"  width="44" height="44" viewBox="0 0 44 44" fill="#7083f5" xmlns="http://www.w3.org/2000/svg">
<g clip-path="url(#clip0_28_4)">
<path d="M22 3.66675C32.1255 3.66675 40.3333 11.8746 40.3333 22.0001C40.3333 32.1256 32.1255 40.3334 22 40.3334C11.8745 40.3334 3.66666 32.1256 3.66666 22.0001C3.66666 11.8746 11.8745 3.66675 22 3.66675ZM22 7.33341C18.1101 7.33341 14.3796 8.87865 11.6291 11.6292C8.87856 14.3797 7.33332 18.1102 7.33332 22.0001C7.33332 25.8899 8.87856 29.6204 11.6291 32.371C14.3796 35.1215 18.1101 36.6667 22 36.6667C25.8898 36.6667 29.6204 35.1215 32.3709 32.371C35.1214 29.6204 36.6667 25.8899 36.6667 22.0001C36.6667 18.1102 35.1214 14.3797 32.3709 11.6292C29.6204 8.87865 25.8898 7.33341 22 7.33341ZM16.1755 28.1289L14.7272 30.6406C14.6282 30.8125 14.4964 30.9632 14.3392 31.0842C14.182 31.2051 14.0025 31.2939 13.811 31.3455C13.6194 31.3971 13.4196 31.4104 13.2229 31.3848C13.0263 31.3592 12.8366 31.295 12.6647 31.1961C12.4928 31.0971 12.342 30.9653 12.2211 30.8081C12.1001 30.6509 12.0113 30.4714 11.9597 30.2799C11.9082 30.0884 11.8948 29.8886 11.9204 29.6919C11.9461 29.4952 12.0102 29.3055 12.1092 29.1336L13.189 27.2709C14.399 26.8932 15.3908 27.1829 16.1755 28.1289ZM24.2183 15.8767L28.6605 23.5657H32.5857C32.7838 23.565 32.9802 23.6035 33.1635 23.6789C33.3468 23.7544 33.5133 23.8653 33.6535 24.0054C33.7938 24.1455 33.9049 24.3119 33.9806 24.495C34.0563 24.6782 34.095 24.8746 34.0945 25.0727C34.0952 25.2711 34.0567 25.4676 33.9811 25.651C33.9055 25.8344 33.7944 26.001 33.6542 26.1413C33.5139 26.2815 33.3473 26.3926 33.1639 26.4682C32.9805 26.5438 32.784 26.5823 32.5857 26.5816H30.404L31.8762 29.1317C32.0627 29.4778 32.107 29.8829 31.9996 30.2611C31.8922 30.6393 31.6416 30.9607 31.3011 31.1572C30.9605 31.3536 30.5568 31.4095 30.1757 31.313C29.7946 31.2166 29.4661 30.9753 29.26 30.6406L23.6867 20.9862C22.4217 18.8046 23.3237 16.6174 24.2183 15.8767ZM24.728 10.2961C25.4522 10.7104 25.696 11.6344 25.2817 12.3586L18.8137 23.5584H23.4942C25.0085 23.5584 25.8592 25.3404 25.201 26.5742H11.4877C11.2895 26.5747 11.0931 26.536 10.91 26.4603C10.7268 26.3847 10.5604 26.2735 10.4203 26.1333C10.2803 25.9931 10.1693 25.8265 10.0939 25.6433C10.0184 25.46 9.97993 25.2636 9.98066 25.0654C9.98017 24.8674 10.0188 24.6712 10.0944 24.4881C10.1699 24.3051 10.2809 24.1388 10.421 23.9987C10.561 23.8587 10.7273 23.7477 10.9104 23.6721C11.0934 23.5966 11.2896 23.5579 11.4877 23.5584H15.3322L20.2547 15.0279L18.7183 12.3586C18.5318 12.0125 18.4875 11.6074 18.5949 11.2292C18.7023 10.851 18.9528 10.5296 19.2934 10.3332C19.6339 10.1368 20.0376 10.0808 20.4188 10.1773C20.7999 10.2738 21.1284 10.515 21.3345 10.8497L21.9927 12.0102L22.6655 10.8497C22.7644 10.6779 22.8963 10.5271 23.0536 10.4063C23.2108 10.2854 23.3904 10.1967 23.5819 10.1453C23.7735 10.0938 23.9733 10.0807 24.17 10.1066C24.3666 10.1325 24.5562 10.1968 24.728 10.2961Z" fill="#7083f5"></path>
</g>
<defs>
<clipPath id="clip0_28_4">
<rect width="44" height="44" fill="#7083f5"></rect>
</clipPath>
</defs>
</svg>