<svg xmlns:xlink="http://www.w3.org/1999/xlink"  width="44" height="44" viewBox="0 0 44 44" fill="#7083f5" xmlns="http://www.w3.org/2000/svg">
<g clip-path="url(#clip0_211_982)">
<path d="M10.0155 8.12727C13.3422 5.24464 17.5981 3.66062 22 3.66677C32.1255 3.66677 40.3333 11.8746 40.3333 22.0001C40.3333 25.9161 39.105 29.5461 37.015 32.5234L31.1667 22.0001H36.6667C36.6669 19.1247 35.822 16.3127 34.2369 13.9137C32.6518 11.5147 30.3965 9.63456 27.7515 8.50699C25.1064 7.37943 22.1883 7.05422 19.3599 7.5718C16.5315 8.08938 13.9177 9.42691 11.8433 11.4181L10.0155 8.12727Z" fill="#7083f5"></path>
<path d="M33.9845 35.8729C30.6578 38.7555 26.4018 40.3396 22 40.3334C11.8745 40.3334 3.66663 32.1256 3.66663 22.0001C3.66663 18.0841 4.89496 14.4541 6.98496 11.4767L12.8333 22.0001H7.33329C7.33306 24.8754 8.178 27.6874 9.76308 30.0864C11.3481 32.4854 13.6034 34.3656 16.2485 35.4932C18.8935 36.6207 21.8117 36.946 24.64 36.4284C27.4684 35.9108 30.0823 34.5733 32.1566 32.5821L33.9845 35.8729Z" fill="#7083f5"></path>
</g>
<defs>
<clipPath id="clip0_211_982">
<rect width="44" height="44" fill="#7083f5"></rect>
</clipPath>
</defs>
</svg>